<svg xmlns="http://www.w3.org/2000/svg" xmlns:xlink="http://www.w3.org/1999/xlink" zoomAndPan="magnify" viewBox="468 895 569 182" preserveAspectRatio="xMidYMid meet" version="1.0"><defs><g/><clipPath id="c8b40f75cb"><path d="M 450 489 L 550 489 L 550 799.652344 L 450 799.652344 Z M 450 489 " clip-rule="nonzero"/></clipPath><clipPath id="cd685c1d75"><path d="M 950.816406 489.625 L 1049.988281 489.625 L 1049.988281 799.636719 L 950.816406 799.636719 Z M 950.816406 489.625 " clip-rule="nonzero"/></clipPath><clipPath id="4cbf51f86e"><path d="M 703 418.652344 L 797 418.652344 L 797 521 L 703 521 Z M 703 418.652344 " clip-rule="nonzero"/></clipPath><clipPath id="277e5a19c5"><rect x="0" width="142" y="0" height="46"/></clipPath></defs><path fill="#ffffff" d="M 654.570312 592.382812 C 647.210938 592.382812 640.351562 593.777344 633.992188 596.558594 C 627.628906 599.34375 622.113281 603.097656 617.441406 607.816406 C 612.769531 612.539062 609.066406 618.082031 606.335938 624.441406 C 603.601562 630.804688 602.234375 637.5625 602.234375 644.71875 C 602.234375 651.875 603.601562 658.636719 606.335938 665 C 609.066406 671.359375 612.769531 676.902344 617.441406 681.621094 C 622.113281 686.34375 627.628906 690.097656 633.992188 692.878906 C 640.351562 695.664062 647.210938 697.054688 654.570312 697.054688 C 661.824219 697.054688 668.632812 695.664062 674.996094 692.878906 C 681.355469 690.097656 686.898438 686.320312 691.621094 681.546875 C 696.34375 676.777344 700.070312 671.238281 702.804688 664.921875 C 705.535156 658.609375 706.90625 651.875 706.90625 644.71875 C 706.90625 637.5625 705.535156 630.832031 702.804688 624.515625 C 700.070312 618.203125 696.34375 612.660156 691.621094 607.890625 C 686.898438 603.121094 681.355469 599.34375 674.996094 596.558594 C 668.632812 593.777344 661.824219 592.382812 654.570312 592.382812 Z M 738.066406 644.71875 C 738.066406 667.980469 729.914062 687.660156 713.613281 703.761719 C 697.109375 720.066406 677.429688 728.21875 654.570312 728.21875 C 631.507812 728.21875 611.824219 720.066406 595.523438 703.761719 C 579.222656 687.464844 571.070312 667.78125 571.070312 644.71875 C 571.070312 621.660156 579.222656 601.980469 595.523438 585.675781 C 611.824219 569.375 631.507812 561.222656 654.570312 561.222656 C 677.429688 561.222656 697.109375 569.375 713.613281 585.675781 C 721.765625 593.824219 727.851562 602.824219 731.878906 612.660156 C 735.90625 622.503906 737.964844 633.191406 738.066406 644.71875 " fill-opacity="1" fill-rule="nonzero"/><path fill="#ffffff" d="M 845.417969 592.382812 C 838.066406 592.382812 831.207031 593.777344 824.84375 596.558594 C 818.480469 599.34375 812.964844 603.097656 808.292969 607.816406 C 803.621094 612.539062 799.917969 618.082031 797.1875 624.441406 C 794.449219 630.804688 793.085938 637.5625 793.085938 644.71875 C 793.085938 651.875 794.449219 658.636719 797.1875 665 C 799.917969 671.359375 803.621094 676.902344 808.292969 681.621094 C 812.964844 686.34375 818.480469 690.097656 824.84375 692.878906 C 831.207031 695.664062 838.066406 697.054688 845.417969 697.054688 C 852.671875 697.054688 859.480469 695.664062 865.847656 692.878906 C 872.207031 690.097656 877.75 686.320312 882.472656 681.546875 C 887.195312 676.777344 890.921875 671.238281 893.652344 664.921875 C 896.382812 658.609375 897.757812 651.875 897.757812 644.71875 C 897.757812 637.5625 896.382812 630.832031 893.652344 624.515625 C 890.921875 618.203125 887.195312 612.660156 882.472656 607.890625 C 877.75 603.121094 872.207031 599.34375 865.847656 596.558594 C 859.480469 593.777344 852.671875 592.382812 845.417969 592.382812 Z M 928.917969 644.71875 C 928.917969 667.980469 920.765625 687.660156 904.464844 703.761719 C 887.964844 720.066406 868.28125 728.21875 845.417969 728.21875 C 822.355469 728.21875 802.671875 720.066406 786.378906 703.761719 C 770.074219 687.464844 761.925781 667.78125 761.925781 644.71875 C 761.925781 621.660156 770.074219 601.980469 786.378906 585.675781 C 802.671875 569.375 822.355469 561.222656 845.417969 561.222656 C 868.28125 561.222656 887.964844 569.375 904.464844 585.675781 C 912.613281 593.824219 918.703125 602.824219 922.730469 612.660156 C 926.753906 622.503906 928.8125 633.191406 928.917969 644.71875 " fill-opacity="1" fill-rule="nonzero"/><g clip-path="url(#c8b40f75cb)"><path fill="#dcf27e" d="M 533.496094 489.800781 C 537.96875 489.800781 541.671875 491.316406 544.605469 494.351562 C 547.535156 497.382812 549.003906 501.082031 549.003906 505.457031 C 549.003906 509.929688 547.535156 513.636719 544.605469 516.566406 C 541.671875 519.5 537.96875 520.964844 533.496094 520.964844 C 521.171875 520.964844 515.007812 527.128906 515.007812 539.453125 L 515.007812 610.722656 C 515.007812 625.039062 511.726562 636.371094 505.167969 644.71875 C 511.726562 653.070312 515.007812 664.402344 515.007812 678.714844 L 515.007812 749.984375 C 515.007812 762.3125 521.171875 768.476562 533.496094 768.476562 C 537.96875 768.476562 541.671875 769.941406 544.605469 772.875 C 547.535156 775.804688 549.003906 779.507812 549.003906 783.984375 C 549.003906 788.453125 547.535156 792.1875 544.605469 795.167969 C 541.671875 798.148438 537.96875 799.636719 533.496094 799.636719 C 500.398438 799.636719 483.847656 783.085938 483.847656 749.984375 L 483.847656 678.714844 C 483.847656 666.390625 477.730469 660.226562 465.507812 660.226562 C 461.035156 660.226562 457.328125 658.757812 454.398438 655.828125 C 451.464844 652.898438 450 649.191406 450 644.71875 C 450 640.246094 451.464844 636.542969 454.398438 633.609375 C 457.328125 630.679688 461.035156 629.214844 465.507812 629.214844 C 477.730469 629.214844 483.847656 623.050781 483.847656 610.722656 L 483.847656 539.453125 C 483.847656 506.351562 500.398438 489.800781 533.496094 489.800781 " fill-opacity="1" fill-rule="nonzero"/></g><g clip-path="url(#cd685c1d75)"><path fill="#dcf27e" d="M 1016.144531 539.453125 L 1016.144531 610.722656 C 1016.144531 623.050781 1022.257812 629.214844 1034.480469 629.214844 C 1038.957031 629.214844 1042.65625 630.679688 1045.589844 633.609375 C 1048.523438 636.542969 1049.988281 640.246094 1049.988281 644.71875 C 1049.988281 649.191406 1048.523438 652.898438 1045.589844 655.828125 C 1042.65625 658.757812 1038.957031 660.226562 1034.480469 660.226562 C 1022.257812 660.226562 1016.144531 666.390625 1016.144531 678.714844 L 1016.144531 749.984375 C 1016.144531 783.085938 999.59375 799.636719 966.488281 799.636719 C 962.015625 799.636719 958.316406 798.148438 955.382812 795.167969 C 952.453125 792.1875 950.988281 788.453125 950.988281 783.984375 C 950.988281 779.507812 952.453125 775.804688 955.382812 772.875 C 958.316406 769.941406 962.015625 768.476562 966.488281 768.476562 C 978.820312 768.476562 984.980469 762.3125 984.980469 749.984375 L 984.980469 678.714844 C 984.980469 664.402344 988.261719 653.070312 994.820312 644.71875 C 988.261719 636.371094 984.980469 625.039062 984.980469 610.722656 L 984.980469 539.453125 C 984.980469 527.128906 978.820312 520.964844 966.488281 520.964844 C 962.015625 520.964844 958.316406 519.5 955.382812 516.566406 C 952.453125 513.636719 950.988281 509.929688 950.988281 505.457031 C 950.988281 501.082031 952.453125 497.382812 955.382812 494.351562 C 958.316406 491.316406 962.015625 489.800781 966.488281 489.800781 C 999.59375 489.800781 1016.144531 506.351562 1016.144531 539.453125 " fill-opacity="1" fill-rule="nonzero"/></g><g clip-path="url(#4cbf51f86e)"><path fill="#dcf27e" d="M 796.664062 502.164062 C 796.664062 504.75 796.164062 507.15625 795.171875 509.394531 C 794.175781 511.632812 792.863281 513.597656 791.222656 515.285156 C 789.582031 516.976562 787.613281 518.292969 785.332031 519.234375 C 783.042969 520.183594 780.660156 520.652344 778.175781 520.652344 C 773.597656 520.652344 769.675781 519.0625 766.394531 515.882812 C 763.113281 512.703125 760.433594 508.800781 758.34375 504.175781 C 756.257812 499.554688 754.738281 494.78125 753.796875 489.863281 C 752.851562 484.941406 752.378906 480.34375 752.378906 476.070312 C 752.378906 458.476562 759.882812 440.683594 774.890625 422.691406 C 777.578125 420.007812 780.609375 418.664062 783.992188 418.664062 C 787.464844 418.664062 790.449219 419.910156 792.933594 422.394531 C 795.417969 424.878906 796.664062 427.863281 796.664062 431.339844 C 796.664062 433.03125 796.3125 434.769531 795.621094 436.558594 C 791.144531 447.496094 788.910156 457.878906 788.910156 467.722656 C 788.910156 477.066406 790.945312 486.113281 795.023438 494.859375 C 796.117188 497.34375 796.664062 499.777344 796.664062 502.164062 Z M 747.609375 502.164062 C 747.609375 504.75 747.109375 507.15625 746.121094 509.394531 C 745.121094 511.632812 743.804688 513.597656 742.167969 515.285156 C 740.527344 516.976562 738.5625 518.292969 736.277344 519.234375 C 733.988281 520.183594 731.605469 520.652344 729.121094 520.652344 C 724.546875 520.652344 720.621094 519.0625 717.339844 515.882812 C 714.0625 512.703125 711.378906 508.800781 709.289062 504.175781 C 707.203125 499.554688 705.6875 494.78125 704.742188 489.863281 C 703.796875 484.941406 703.324219 480.34375 703.324219 476.070312 C 703.324219 458.476562 710.828125 440.683594 725.839844 422.691406 C 728.523438 420.007812 731.554688 418.664062 734.933594 418.664062 C 738.414062 418.664062 741.394531 419.910156 743.882812 422.394531 C 746.367188 424.878906 747.609375 427.863281 747.609375 431.339844 C 747.609375 433.03125 747.261719 434.769531 746.566406 436.558594 C 742.09375 447.496094 739.855469 457.878906 739.855469 467.722656 C 739.855469 477.066406 741.894531 486.113281 745.96875 494.859375 C 747.0625 497.34375 747.609375 499.777344 747.609375 502.164062 " fill-opacity="1" fill-rule="nonzero"/></g><g fill="#ffffff" fill-opacity="1"><g transform="translate(469.453059, 989.371311)"><g><path d="M 36.671875 -31.484375 C 35.453125 -31.398438 34.148438 -31.359375 32.765625 -31.359375 C 31.390625 -31.359375 29.335938 -31.460938 26.609375 -31.671875 L 26.609375 0 L 10.46875 0 L 10.46875 -81.4375 C 16.15625 -82.164062 23.140625 -82.53125 31.421875 -82.53125 C 42.710938 -82.53125 51.128906 -80.445312 56.671875 -76.28125 C 62.210938 -72.125 64.984375 -65.695312 64.984375 -57 C 64.984375 -50.257812 62.445312 -44.492188 57.375 -39.703125 C 55.707031 -38.160156 53.796875 -36.820312 51.640625 -35.6875 L 64.078125 -9.5 C 66.515625 -4.101562 68.378906 -0.894531 69.671875 0.125 L 69.375 0.421875 C 65.4375 -0.222656 59.242188 -0.203125 50.796875 0.484375 Z M 32.578125 -68.15625 C 30.515625 -68.15625 28.523438 -68.050781 26.609375 -67.84375 L 26.609375 -44.578125 C 28.597656 -44.296875 30.929688 -44.15625 33.609375 -44.15625 C 36.296875 -44.15625 38.550781 -44.390625 40.375 -44.859375 C 42.207031 -45.328125 43.789062 -46.046875 45.125 -47.015625 C 48.007812 -49.171875 49.453125 -52.398438 49.453125 -56.703125 C 49.453125 -61.003906 47.953125 -64.03125 44.953125 -65.78125 C 42.148438 -67.363281 38.023438 -68.15625 32.578125 -68.15625 Z M 32.578125 -68.15625 "/></g></g></g><g fill="#ffffff" fill-opacity="1"><g transform="translate(542.106441, 989.371311)"><g><path d="M 16.390625 0.484375 C 12.890625 0.160156 8.804688 0 4.140625 0 L -0.671875 0 L 25.828125 -74.25 C 27.003906 -77.570312 27.59375 -79.503906 27.59375 -80.046875 C 27.59375 -80.597656 27.570312 -80.9375 27.53125 -81.0625 L 27.59375 -81.1875 C 30.226562 -81.0625 33.03125 -81 36 -81 C 38.4375 -81 41.359375 -81.039062 44.765625 -81.125 L 44.828125 -81 C 44.742188 -80.84375 44.703125 -80.617188 44.703125 -80.328125 C 44.703125 -79.554688 45.3125 -77.507812 46.53125 -74.1875 L 73.578125 0.1875 C 72.765625 0.144531 71.8125 0.125 70.71875 0.125 C 70.71875 0.125 69.660156 0.0820312 67.546875 0 C 66.523438 0 65.609375 0 64.796875 0 L 55.359375 0 L 49.640625 -17.546875 L 22.109375 -17.546875 Z M 44.890625 -32.15625 L 35.6875 -60.484375 L 26.734375 -32.15625 Z M 44.890625 -32.15625 "/></g></g></g><g fill="#ffffff" fill-opacity="1"><g transform="translate(615.003423, 989.371311)"><g><path d="M 39.46875 0.25 C 38.25 0.0820312 36.175781 0 33.25 0 L 26.1875 0 C 24.8125 0 23.675781 0.0390625 22.78125 0.125 L 22.71875 0 C 22.882812 -0.28125 22.96875 -0.601562 22.96875 -0.96875 C 22.96875 -1.332031 22.9375 -1.71875 22.875 -2.125 C 22.8125 -2.53125 22.644531 -3.257812 22.375 -4.3125 C 22.113281 -5.375 21.71875 -6.898438 21.1875 -8.890625 L 0.484375 -81.25 C 3.085938 -81.082031 6.234375 -81 9.921875 -81 C 13.617188 -81 16.015625 -81.160156 17.109375 -81.484375 L 31.484375 -26.375 L 45.5 -81.25 C 46.101562 -81.207031 46.648438 -81.164062 47.140625 -81.125 L 48.484375 -81.125 C 49.816406 -81.039062 51.5 -81 53.53125 -81 C 55.5625 -81 57.65625 -81.160156 59.8125 -81.484375 L 74.0625 -26.375 L 86.296875 -81.25 C 88.734375 -81.082031 91.921875 -81 95.859375 -81 C 99.796875 -81 102.191406 -81.160156 103.046875 -81.484375 L 85.515625 -17.234375 C 83.273438 -9.847656 82.09375 -5.460938 81.96875 -4.078125 C 81.851562 -2.703125 81.796875 -1.75 81.796875 -1.21875 C 81.796875 -0.6875 81.878906 -0.257812 82.046875 0.0625 L 81.921875 0.25 C 80.617188 0.0820312 78.566406 0 75.765625 0 C 73.328125 0 71.113281 0 69.125 0 C 67.132812 0 65.691406 0.0390625 64.796875 0.125 L 64.75 0 C 64.90625 -0.28125 64.984375 -0.601562 64.984375 -0.96875 C 64.984375 -1.332031 64.960938 -1.695312 64.921875 -2.0625 C 64.878906 -2.4375 64.765625 -3.140625 64.578125 -4.171875 C 64.398438 -5.203125 64.109375 -6.734375 63.703125 -8.765625 L 62.0625 -17.046875 L 52.078125 -55 L 42.578125 -17.234375 C 40.628906 -9.484375 39.613281 -5.019531 39.53125 -3.84375 C 39.363281 -1.601562 39.382812 -0.300781 39.59375 0.0625 Z M 39.46875 0.25 "/></g></g></g><g fill="#dcf27e" fill-opacity="1"><g transform="translate(719.144447, 989.371311)"><g><path d="M 46.78125 -82.53125 C 54.375 -82.53125 60.847656 -81.207031 66.203125 -78.5625 L 66.203125 -59.9375 L 66.078125 -59.8125 C 63.804688 -63.300781 59.015625 -65.613281 51.703125 -66.75 C 49.554688 -67.113281 46.835938 -67.296875 43.546875 -67.296875 C 40.253906 -67.296875 37.023438 -66.675781 33.859375 -65.4375 C 30.691406 -64.195312 28.09375 -62.441406 26.0625 -60.171875 C 22.125 -55.742188 20.15625 -49.429688 20.15625 -41.234375 C 20.15625 -31.691406 22.65625 -24.585938 27.65625 -19.921875 C 31.789062 -16.015625 37.269531 -14.0625 44.09375 -14.0625 C 51.8125 -14.0625 58.066406 -15.707031 62.859375 -19 C 64.597656 -20.175781 66.078125 -21.640625 67.296875 -23.390625 L 67.484375 -23.265625 L 67.484375 -6.21875 C 61.273438 -1.0625 52.910156 1.515625 42.390625 1.515625 C 30.003906 1.515625 20.300781 -2.421875 13.28125 -10.296875 C 6.539062 -17.804688 3.171875 -27.753906 3.171875 -40.140625 C 3.171875 -53.253906 6.863281 -63.585938 14.25 -71.140625 C 21.71875 -78.734375 32.5625 -82.53125 46.78125 -82.53125 Z M 46.78125 -82.53125 "/></g></g></g><g fill="#dcf27e" fill-opacity="1"><g transform="translate(791.493325, 989.371311)"><g><path d="M 17.109375 -9.625 C 13.421875 -13.15625 10.507812 -17.394531 8.375 -22.34375 C 6.238281 -27.300781 5.171875 -32.734375 5.171875 -38.640625 C 5.171875 -44.546875 6.164062 -50.140625 8.15625 -55.421875 C 10.144531 -60.703125 12.988281 -65.351562 16.6875 -69.375 C 20.382812 -73.394531 24.847656 -76.59375 30.078125 -78.96875 C 35.316406 -81.34375 41.1875 -82.53125 47.6875 -82.53125 C 58.894531 -82.53125 68.335938 -78.992188 76.015625 -71.921875 C 84.210938 -64.367188 88.3125 -54.179688 88.3125 -41.359375 C 88.3125 -28.929688 84.085938 -18.597656 75.640625 -10.359375 C 70.441406 -5.273438 64.25 -1.78125 57.0625 0.125 C 53.53125 1.050781 49.398438 1.515625 44.671875 1.515625 C 39.941406 1.515625 35.085938 0.539062 30.109375 -1.40625 C 25.140625 -3.351562 20.804688 -6.09375 17.109375 -9.625 Z M 22.109375 -39.46875 C 22.109375 -35.6875 22.738281 -32.210938 24 -29.046875 C 25.257812 -25.878906 27.003906 -23.160156 29.234375 -20.890625 C 33.984375 -16.097656 40.09375 -13.703125 47.5625 -13.703125 C 54.664062 -13.703125 60.375 -16 64.6875 -20.59375 C 69.070312 -25.34375 71.265625 -31.816406 71.265625 -40.015625 C 71.265625 -47.734375 69.171875 -54.171875 64.984375 -59.328125 C 60.472656 -64.847656 54.300781 -67.609375 46.46875 -67.609375 C 38.875 -67.609375 32.84375 -64.804688 28.375 -59.203125 C 24.195312 -53.960938 22.109375 -47.382812 22.109375 -39.46875 Z M 22.109375 -39.46875 "/></g></g></g><g fill="#dcf27e" fill-opacity="1"><g transform="translate(884.974415, 989.371311)"><g><path d="M 30.203125 1.515625 C 23.628906 1.515625 17.441406 0.988281 11.640625 -0.0625 L 11.640625 -81.546875 C 16.992188 -82.203125 23.210938 -82.53125 30.296875 -82.53125 C 37.378906 -82.53125 43.796875 -81.5625 49.546875 -79.625 C 55.296875 -77.695312 60.097656 -74.945312 63.953125 -71.375 C 71.742188 -64.226562 75.640625 -54.222656 75.640625 -41.359375 C 75.640625 -26.941406 71.296875 -16 62.609375 -8.53125 C 54.816406 -1.832031 44.015625 1.515625 30.203125 1.515625 Z M 27.46875 -13.34375 C 30.101562 -12.851562 32.738281 -12.609375 35.375 -12.609375 C 38.019531 -12.609375 40.863281 -13.125 43.90625 -14.15625 C 46.957031 -15.195312 49.597656 -16.8125 51.828125 -19 C 56.617188 -23.632812 59.015625 -30.375 59.015625 -39.21875 C 59.015625 -53.757812 53.71875 -62.691406 43.125 -66.015625 C 39.632812 -67.117188 35.59375 -67.671875 31 -67.671875 L 29.359375 -67.671875 C 28.742188 -67.671875 28.113281 -67.648438 27.46875 -67.609375 Z M 27.46875 -13.34375 "/></g></g></g><g fill="#dcf27e" fill-opacity="1"><g transform="translate(968.041657, 989.371311)"><g><path d="M 51.21875 -14.625 C 53.738281 -14.625 55.484375 -14.863281 56.453125 -15.34375 L 56.703125 -15.28125 L 56.09375 0 L 10.46875 0 L 10.46875 -81.4375 C 11.570312 -81.351562 12.789062 -81.289062 14.125 -81.25 L 18.390625 -81.125 C 21.234375 -81.039062 24.320312 -81 27.65625 -81 C 36.945312 -81 46.140625 -81.160156 55.234375 -81.484375 C 54.796875 -77.910156 54.578125 -73.140625 54.578125 -67.171875 C 54.578125 -66.523438 54.613281 -66.039062 54.6875 -65.71875 L 54.578125 -65.53125 C 52.460938 -66.144531 49.457031 -66.453125 45.5625 -66.453125 L 26.375 -66.453125 L 26.375 -50.921875 L 40.8125 -50.921875 C 45.269531 -50.921875 47.945312 -51.039062 48.84375 -51.28125 L 49.03125 -36.234375 C 47.082031 -36.441406 44.566406 -36.546875 41.484375 -36.546875 L 26.375 -36.546875 L 26.375 -14.625 Z M 51.21875 -14.625 "/></g></g></g><g transform="matrix(1, 0, 0, 1, 689, 1031)"><g clip-path="url(#277e5a19c5)"><g fill="#ffffff" fill-opacity="1"><g transform="translate(1.097767, 33.747701)"><g><path d="M 1.765625 0 L 1.765625 -30.796875 L 5.1875 -30.796875 L 5.1875 -3.125 L 13.984375 -3.125 L 13.984375 0 Z M 1.765625 0 "/></g></g></g><g fill="#ffffff" fill-opacity="1"><g transform="translate(33.515443, 33.747701)"><g><path d="M 5.234375 -6.203125 L 4.046875 0 L 0.875 0 L 6.78125 -30.796875 L 11.75 -30.796875 L 17.640625 0 L 14.203125 0 L 13.015625 -6.203125 Z M 5.671875 -9.15625 L 12.53125 -9.15625 L 9.0625 -26.921875 Z M 5.671875 -9.15625 "/></g></g></g><g fill="#ffffff" fill-opacity="1"><g transform="translate(69.670484, 33.747701)"><g><path d="M 8.671875 -30.796875 C 11.066406 -30.796875 12.773438 -30.226562 13.796875 -29.09375 C 14.828125 -27.96875 15.34375 -26.257812 15.34375 -23.96875 L 15.34375 -22.515625 C 15.34375 -20.878906 15.078125 -19.550781 14.546875 -18.53125 C 14.023438 -17.519531 13.09375 -16.8125 11.75 -16.40625 C 13.238281 -16 14.296875 -15.222656 14.921875 -14.078125 C 15.554688 -12.929688 15.875 -11.507812 15.875 -9.8125 L 15.875 -7.21875 C 15.875 -4.894531 15.300781 -3.109375 14.15625 -1.859375 C 13.019531 -0.617188 11.25 0 8.84375 0 L 1.765625 0 L 1.765625 -30.796875 Z M 7.828125 -17.71875 C 9.203125 -17.71875 10.234375 -17.992188 10.921875 -18.546875 C 11.617188 -19.109375 11.96875 -20.195312 11.96875 -21.8125 L 11.96875 -23.625 C 11.96875 -25 11.707031 -26.015625 11.1875 -26.671875 C 10.675781 -27.335938 9.804688 -27.671875 8.578125 -27.671875 L 5.1875 -27.671875 L 5.1875 -17.71875 Z M 8.84375 -3.125 C 11.269531 -3.125 12.484375 -4.515625 12.484375 -7.296875 L 12.484375 -10.03125 C 12.484375 -11.757812 12.140625 -12.953125 11.453125 -13.609375 C 10.765625 -14.273438 9.675781 -14.609375 8.1875 -14.609375 L 5.1875 -14.609375 L 5.1875 -3.125 Z M 8.84375 -3.125 "/></g></g></g><g fill="#ffffff" fill-opacity="1"><g transform="translate(104.506434, 33.747701)"><g><path d="M 8.21875 -31.09375 C 10.570312 -31.09375 12.304688 -30.394531 13.421875 -29 C 14.535156 -27.613281 15.09375 -25.75 15.09375 -23.40625 L 15.09375 -22.5625 L 11.828125 -22.5625 L 11.828125 -23.578125 C 11.828125 -24.984375 11.546875 -26.066406 10.984375 -26.828125 C 10.429688 -27.585938 9.539062 -27.96875 8.3125 -27.96875 C 7.082031 -27.96875 6.1875 -27.585938 5.625 -26.828125 C 5.070312 -26.066406 4.796875 -25 4.796875 -23.625 C 4.796875 -22.476562 5.050781 -21.476562 5.5625 -20.625 C 6.070312 -19.78125 6.707031 -19 7.46875 -18.28125 C 8.238281 -17.5625 9.066406 -16.851562 9.953125 -16.15625 C 10.847656 -15.46875 11.675781 -14.710938 12.4375 -13.890625 C 13.207031 -13.078125 13.847656 -12.148438 14.359375 -11.109375 C 14.867188 -10.066406 15.125 -8.828125 15.125 -7.390625 C 15.125 -5.046875 14.5625 -3.175781 13.4375 -1.78125 C 12.3125 -0.382812 10.5625 0.3125 8.1875 0.3125 C 5.8125 0.3125 4.066406 -0.382812 2.953125 -1.78125 C 1.835938 -3.175781 1.28125 -5.046875 1.28125 -7.390625 L 1.28125 -9.15625 L 4.484375 -9.15625 L 4.484375 -7.21875 C 4.484375 -5.8125 4.773438 -4.722656 5.359375 -3.953125 C 5.953125 -3.191406 6.863281 -2.8125 8.09375 -2.8125 C 9.320312 -2.8125 10.226562 -3.191406 10.8125 -3.953125 C 11.40625 -4.722656 11.703125 -5.8125 11.703125 -7.21875 C 11.703125 -8.351562 11.441406 -9.335938 10.921875 -10.171875 C 10.410156 -11.015625 9.773438 -11.796875 9.015625 -12.515625 C 8.253906 -13.234375 7.429688 -13.9375 6.546875 -14.625 C 5.671875 -15.3125 4.851562 -16.066406 4.09375 -16.890625 C 3.332031 -17.710938 2.691406 -18.644531 2.171875 -19.6875 C 1.660156 -20.726562 1.40625 -21.96875 1.40625 -23.40625 C 1.40625 -25.78125 1.960938 -27.65625 3.078125 -29.03125 C 4.191406 -30.40625 5.90625 -31.09375 8.21875 -31.09375 Z M 8.21875 -31.09375 "/></g></g></g></g></g></svg>